<svg width="16" height="16" viewBox="0 0 16 16" fill="none" xmlns="http://www.w3.org/2000/svg">
<text x="9" y="14" style="font-size: 8px;" stroke="#C5C5C5">∑</text>
<path fill-rule="evenodd" clip-rule="evenodd" d="M13 1L14 2V7.33573C13.6829 7.18584 13.3457 7.08481 13 7.03533V2L8 2L8 12.8787L6.87837 14H2L1 13V2L2 1H13ZM9.70794 14H9.70785L10 13.7077V13.7079L9.70794 14ZM13 10.5174C13.0002 10.5116 13.0003 10.5058 13.0003 10.5C13.0003 10.4942 13.0002 10.4884 13 10.4826V10.5174ZM2 2L7 2L7 13H2L2 2Z" fill="#C5C5C5"/>
</svg>
